<svg width="300" height="300" viewBox="0 0 300 300" fill="none" xmlns="http://www.w3.org/2000/svg">
<rect width="300" height="300" fill="#4D82D0"/>
<ellipse cx="145" cy="102" rx="71" ry="45" fill="#FECCBC"/>
<circle cx="74" cy="152" r="62" fill="#FECCBC"/>
<circle cx="216" cy="147" r="71" fill="#FECCBC"/>
<circle cx="159" cy="156" r="71" fill="#FECCBC"/>
<path d="M41.4805 126.135H49.5488V165H41.4805V126.135ZM80.5039 165.211C78.7637 165.791 76.6807 166.081 74.2549 166.081C69.1924 166.081 65.0088 164.569 61.7041 161.546C57.6963 157.907 55.6924 152.563 55.6924 145.515C55.6924 138.413 57.749 133.043 61.8623 129.404C65.2197 126.434 69.3945 124.948 74.3867 124.948C79.4141 124.948 83.6328 126.521 87.043 129.668C90.9805 133.307 92.9492 138.396 92.9492 144.935C92.9492 148.397 92.5273 151.298 91.6836 153.636C90.998 155.868 89.9873 157.723 88.6514 159.199L93.1338 163.392L88.8887 167.821L84.1953 163.392C82.7715 164.253 81.541 164.859 80.5039 165.211ZM78.7637 158.197L74.835 154.453L79.0273 150.076L82.9561 153.82C83.5713 152.555 84.002 151.447 84.248 150.498C84.6348 149.074 84.8281 147.413 84.8281 145.515C84.8281 141.155 83.9316 137.789 82.1387 135.416C80.3633 133.025 77.7617 131.83 74.334 131.83C71.1172 131.83 68.5508 132.973 66.6348 135.258C64.7188 137.543 63.7607 140.962 63.7607 145.515C63.7607 150.841 65.1318 154.655 67.874 156.958C69.6494 158.452 71.7764 159.199 74.2549 159.199C75.1865 159.199 76.083 159.085 76.9443 158.856C77.4189 158.733 78.0254 158.514 78.7637 158.197Z" fill="#FFE6DE"/>
<path d="M181.601 149.982H144.892V169.414H186.728V183H129.459V107.429H184.882V120.81H144.892V136.857H181.601V149.982ZM244.457 183.41C241.073 184.538 237.023 185.102 232.306 185.102C222.462 185.102 214.328 182.163 207.902 176.284C200.109 169.208 196.212 158.818 196.212 145.112C196.212 131.303 200.211 120.861 208.209 113.786C214.738 108.01 222.855 105.122 232.562 105.122C242.338 105.122 250.541 108.181 257.172 114.299C264.828 121.374 268.656 131.269 268.656 143.984C268.656 150.717 267.836 156.357 266.195 160.903C264.862 165.244 262.897 168.85 260.299 171.721L269.015 179.873L260.761 188.486L251.635 179.873C248.866 181.547 246.474 182.727 244.457 183.41ZM241.073 169.772L233.434 162.492L241.586 153.981L249.225 161.262C250.421 158.801 251.259 156.647 251.737 154.802C252.489 152.033 252.865 148.803 252.865 145.112C252.865 136.635 251.122 130.09 247.636 125.476C244.184 120.827 239.125 118.503 232.46 118.503C226.205 118.503 221.215 120.725 217.489 125.168C213.764 129.611 211.901 136.259 211.901 145.112C211.901 155.468 214.567 162.885 219.899 167.363C223.351 170.268 227.487 171.721 232.306 171.721C234.118 171.721 235.861 171.499 237.536 171.054C238.458 170.815 239.638 170.388 241.073 169.772Z" fill="#FFE6DE"/>
</svg>
