<svg width="600" height="600" viewBox="0 0 600 600" fill="none" xmlns="http://www.w3.org/2000/svg">
<rect width="600" height="600" fill="#DB79FF"/>
<path d="M129.127 319.401C125.528 322.695 120.926 324.341 115.321 324.341C108.386 324.341 102.933 322.117 98.9639 317.667C94.9945 313.196 93.0098 307.068 93.0098 299.282C93.0098 290.863 95.2671 284.375 99.7817 279.816C103.708 275.847 108.702 273.862 114.765 273.862C122.878 273.862 128.811 276.523 132.562 281.845C134.634 284.833 135.746 287.832 135.899 290.841H125.823C125.168 288.529 124.329 286.785 123.304 285.607C121.472 283.513 118.756 282.466 115.158 282.466C111.494 282.466 108.604 283.949 106.488 286.916C104.373 289.86 103.315 294.036 103.315 299.445C103.315 304.854 104.427 308.911 106.652 311.615C108.898 314.298 111.744 315.639 115.19 315.639C118.724 315.639 121.417 314.483 123.271 312.171C124.296 310.928 125.147 309.063 125.823 306.577H135.801C134.928 311.833 132.704 316.108 129.127 319.401ZM180.597 324.341C173.705 324.341 168.438 322.466 164.795 318.714C159.91 314.112 157.467 307.482 157.467 298.824C157.467 289.991 159.91 283.361 164.795 278.933C168.438 275.182 173.705 273.306 180.597 273.306C187.488 273.306 192.756 275.182 196.398 278.933C201.261 283.361 203.693 289.991 203.693 298.824C203.693 307.482 201.261 314.112 196.398 318.714C192.756 322.466 187.488 324.341 180.597 324.341ZM190.117 311.386C192.45 308.442 193.617 304.254 193.617 298.824C193.617 293.415 192.439 289.238 190.084 286.294C187.75 283.328 184.588 281.845 180.597 281.845C176.605 281.845 173.421 283.317 171.044 286.261C168.667 289.206 167.478 293.393 167.478 298.824C167.478 304.254 168.667 308.442 171.044 311.386C173.421 314.331 176.605 315.803 180.597 315.803C184.588 315.803 187.761 314.331 190.117 311.386ZM266.155 323H256.079L236.385 288.748V323H226.995V274.778H237.562L256.766 308.442V274.778H266.155V323ZM326.36 274.778V283.317H311.932V323H301.791V283.317H287.298V274.778H326.36ZM381.591 301.932H358.167V314.331H384.863V323H348.32V274.778H383.685V283.317H358.167V293.557H381.591V301.932ZM447.455 323H437.379L417.685 288.748V323H408.296V274.778H418.863L438.066 308.442V274.778H447.455V323ZM507.66 274.778V283.317H493.233V323H483.091V283.317H468.598V274.778H507.66Z" fill="#432F6F"/>
</svg>
