<svg width="1000" height="1000" viewBox="0 0 1000 1000" fill="none" xmlns="http://www.w3.org/2000/svg">
<rect width="1000" height="1000" fill="#E3B7F3"/>
<rect x="100" y="100" width="800" height="800" fill="#E4A5FB" stroke="#BB00FF" stroke-width="30"/>
<rect x="200" y="200" width="600" height="600" fill="#DB79FF"/>
<path d="M329.127 519.401C325.528 522.695 320.926 524.341 315.321 524.341C308.386 524.341 302.933 522.117 298.964 517.667C294.994 513.196 293.01 507.068 293.01 499.282C293.01 490.863 295.267 484.375 299.782 479.816C303.708 475.847 308.702 473.862 314.765 473.862C322.878 473.862 328.811 476.523 332.562 481.845C334.634 484.833 335.746 487.832 335.899 490.841H325.823C325.168 488.529 324.329 486.785 323.304 485.607C321.472 483.513 318.756 482.466 315.158 482.466C311.494 482.466 308.604 483.949 306.488 486.916C304.373 489.86 303.315 494.036 303.315 499.445C303.315 504.854 304.427 508.911 306.652 511.615C308.898 514.298 311.744 515.639 315.19 515.639C318.724 515.639 321.417 514.483 323.271 512.171C324.296 510.928 325.147 509.063 325.823 506.577H335.801C334.928 511.833 332.704 516.108 329.127 519.401ZM380.597 524.341C373.705 524.341 368.438 522.466 364.795 518.714C359.91 514.112 357.467 507.482 357.467 498.824C357.467 489.991 359.91 483.361 364.795 478.933C368.438 475.182 373.705 473.306 380.597 473.306C387.488 473.306 392.756 475.182 396.398 478.933C401.261 483.361 403.693 489.991 403.693 498.824C403.693 507.482 401.261 514.112 396.398 518.714C392.756 522.466 387.488 524.341 380.597 524.341ZM390.117 511.386C392.45 508.442 393.617 504.254 393.617 498.824C393.617 493.415 392.439 489.238 390.084 486.294C387.75 483.328 384.588 481.845 380.597 481.845C376.605 481.845 373.421 483.317 371.044 486.261C368.667 489.206 367.478 493.393 367.478 498.824C367.478 504.254 368.667 508.442 371.044 511.386C373.421 514.331 376.605 515.803 380.597 515.803C384.588 515.803 387.761 514.331 390.117 511.386ZM466.155 523H456.079L436.385 488.748V523H426.995V474.778H437.562L456.766 508.442V474.778H466.155V523ZM526.36 474.778V483.317H511.932V523H501.791V483.317H487.298V474.778H526.36ZM581.591 501.932H558.167V514.331H584.863V523H548.32V474.778H583.685V483.317H558.167V493.557H581.591V501.932ZM647.455 523H637.379L617.685 488.748V523H608.296V474.778H618.863L638.066 508.442V474.778H647.455V523ZM707.66 474.778V483.317H693.233V523H683.091V483.317H668.598V474.778H707.66Z" fill="#432F6F"/>
</svg>
