<svg width="800" height="800" viewBox="0 0 800 800" fill="none" xmlns="http://www.w3.org/2000/svg">
<rect width="800" height="800" fill="#E4A5FB"/>
<rect x="100" y="100" width="600" height="600" fill="#DB79FF"/>
<path d="M229.127 419.401C225.528 422.695 220.926 424.341 215.321 424.341C208.386 424.341 202.933 422.117 198.964 417.667C194.994 413.196 193.01 407.068 193.01 399.282C193.01 390.863 195.267 384.375 199.782 379.816C203.708 375.847 208.702 373.862 214.765 373.862C222.878 373.862 228.811 376.523 232.562 381.845C234.634 384.833 235.746 387.832 235.899 390.841H225.823C225.168 388.529 224.329 386.785 223.304 385.607C221.472 383.513 218.756 382.466 215.158 382.466C211.494 382.466 208.604 383.949 206.488 386.916C204.373 389.86 203.315 394.036 203.315 399.445C203.315 404.854 204.427 408.911 206.652 411.615C208.898 414.298 211.744 415.639 215.19 415.639C218.724 415.639 221.417 414.483 223.271 412.171C224.296 410.928 225.147 409.063 225.823 406.577H235.801C234.928 411.833 232.704 416.108 229.127 419.401ZM280.597 424.341C273.705 424.341 268.438 422.466 264.795 418.714C259.91 414.112 257.467 407.482 257.467 398.824C257.467 389.991 259.91 383.361 264.795 378.933C268.438 375.182 273.705 373.306 280.597 373.306C287.488 373.306 292.756 375.182 296.398 378.933C301.261 383.361 303.693 389.991 303.693 398.824C303.693 407.482 301.261 414.112 296.398 418.714C292.756 422.466 287.488 424.341 280.597 424.341ZM290.117 411.386C292.45 408.442 293.617 404.254 293.617 398.824C293.617 393.415 292.439 389.238 290.084 386.294C287.75 383.328 284.588 381.845 280.597 381.845C276.605 381.845 273.421 383.317 271.044 386.261C268.667 389.206 267.478 393.393 267.478 398.824C267.478 404.254 268.667 408.442 271.044 411.386C273.421 414.331 276.605 415.803 280.597 415.803C284.588 415.803 287.761 414.331 290.117 411.386ZM366.155 423H356.079L336.385 388.748V423H326.995V374.778H337.562L356.766 408.442V374.778H366.155V423ZM426.36 374.778V383.317H411.932V423H401.791V383.317H387.298V374.778H426.36ZM481.591 401.932H458.167V414.331H484.863V423H448.32V374.778H483.685V383.317H458.167V393.557H481.591V401.932ZM547.455 423H537.379L517.685 388.748V423H508.296V374.778H518.863L538.066 408.442V374.778H547.455V423ZM607.66 374.778V383.317H593.233V423H583.091V383.317H568.598V374.778H607.66Z" fill="#432F6F"/>
</svg>
